External Loads File
version=1
nRows=39
nColumns=13
Range=5.000000e-03-10 seconds
endheader
time 	forceRightX 	forceRightY 	forceRightZ 	pointRightX 	pointRightY 	pointRightZ 	forceLeftX 	forceLeftY 	forceLeftZ 	pointLeftX 	pointLeftY 	pointLeftZ 		
2.505000 -42.429967 -25.559964 -0.000000 0.217183 0.439524 -0.124773 -44.942027 1144.300207 -0.000000 0.404006 0.187915 -0.367813
2.510000 -45.571278 -19.577590 -0.000000 0.223208 0.445386 -0.124985 -19.291558 1152.853644 -0.000000 0.398467 0.182505 -0.367743
2.515000 -48.230456 -11.918048 -0.000000 0.229849 0.451048 -0.124260 8.218982 1155.129668 -0.000000 0.392858 0.177424 -0.367742
2.520000 -50.179855 -2.627565 -0.000000 0.235038 0.456219 -0.125280 31.140141 1150.750489 -0.000000 0.387006 0.172398 -0.367972
2.525000 -51.375036 8.677350 -0.000000 0.241442 0.461241 -0.125668 56.540832 1139.283406 -0.000000 0.380972 0.168172 -0.367754
2.530000 -51.731911 21.808746 -0.000000 0.248063 0.466064 -0.125886 81.596822 1120.511612 -0.000000 0.374809 0.164095 -0.367489
2.535000 -51.305780 36.412258 -0.000000 0.254200 0.470811 -0.126060 103.428725 1094.665281 -0.000000 0.368455 0.160435 -0.367097
2.540000 -50.117556 52.196446 -0.000000 0.260805 0.474923 -0.126027 123.393563 1061.903550 -0.000000 0.362116 0.157096 -0.366892
2.545000 -48.272247 68.688499 -0.000000 0.267498 0.478475 -0.126139 140.535229 1022.696844 -0.000000 0.355652 0.154109 -0.366780
2.550000 -45.879741 85.453065 -0.000000 0.274203 0.482002 -0.126183 154.642466 977.584926 -0.000000 0.349124 0.151461 -0.366603
2.555000 -43.073682 102.102801 -0.000000 0.281027 0.484982 -0.126111 165.302696 927.305348 -0.000000 0.342575 0.149191 -0.366492
2.560000 -39.951150 118.362459 -0.000000 0.287950 0.487576 -0.125981 172.549385 872.710679 -0.000000 0.336034 0.147166 -0.366472
2.565000 -36.720386 134.038682 -0.000000 0.294631 0.489855 -0.125896 175.706295 814.965440 -0.000000 0.329470 0.145637 -0.366237
2.570000 -33.285341 149.149940 -0.000000 0.301543 0.491823 -0.125725 176.209473 754.953723 -0.000000 0.322931 0.144432 -0.366186
2.575000 -29.701511 163.752444 -0.000000 0.308502 0.493434 -0.125617 174.305349 693.950023 -0.000000 0.316278 0.143641 -0.366032
2.580000 -26.125345 177.953843 -0.000000 0.315289 0.494674 -0.125511 170.059762 633.426595 -0.000000 0.309524 0.142011 -0.365903
2.585000 -22.456514 191.944320 -0.000000 0.322121 0.495475 -0.125568 164.641960 574.576266 -0.000000 0.302671 0.143248 -0.365719
2.590000 -18.796615 205.914092 -0.000000 0.329104 0.495993 -0.125188 158.389315 518.635577 -0.000000 0.295903 0.143769 -0.365884
2.595000 -15.290065 220.089682 -0.000000 0.335743 0.496101 -0.125193 151.585997 466.569196 -0.000000 0.288878 0.144221 -0.365834
2.600000 -11.866660 234.735137 -0.000000 0.342326 0.495753 -0.125137 144.884006 418.849715 -0.000000 0.281827 0.145256 -0.365794
2.605000 -8.516991 250.099613 -0.000000 0.348836 0.494949 -0.125100 138.548816 375.671848 -0.000000 0.274774 0.146726 -0.365688
2.610000 -5.225577 266.394711 -0.000000 0.355270 0.493697 -0.125037 132.737887 336.922404 -0.000000 0.267748 0.148537 -0.365578
2.615000 -1.907415 283.766835 -0.000000 0.361662 0.492026 -0.125070 127.616950 302.245005 -0.000000 0.260733 0.150819 -0.365474
2.620000 1.171847 302.268641 -0.000000 0.367799 0.489894 -0.124917 122.942669 271.348841 -0.000000 0.253857 0.153481 -0.365383
2.625000 4.304892 321.835285 -0.000000 0.373898 0.487269 -0.124763 119.016743 243.688148 -0.000000 0.246985 0.156573 -0.365306
2.630000 7.407893 342.258308 -0.000000 0.379914 0.484196 -0.124582 115.687574 218.894619 -0.000000 0.240154 0.160031 -0.365236
2.635000 10.271503 363.189235 -0.000000 0.385797 0.480720 -0.124381 112.735872 196.610068 -0.000000 0.233513 0.163847 -0.365234
2.640000 12.590117 384.156267 -0.000000 0.391506 0.476958 -0.124449 109.938275 176.462957 -0.000000 0.227197 0.167981 -0.364916
2.645000 14.507834 404.589969 -0.000000 0.396912 0.472531 -0.124608 107.298449 157.931604 -0.000000 0.221028 0.172420 -0.364619
2.650000 16.351927 423.892124 -0.000000 0.402527 0.467718 -0.124303 104.794429 140.460683 -0.000000 0.215039 0.177258 -0.364562
2.655000 17.586490 441.547151 -0.000000 0.407930 0.462410 -0.124165 102.064743 123.740124 -0.000000 0.209226 0.182320 -0.364555
2.660000 18.037553 457.139031 -0.000000 0.413152 0.456683 -0.124072 98.960853 107.440958 -0.000000 0.203744 0.187711 -0.364583
2.665000 17.657542 470.402044 -0.000000 0.418228 0.450682 -0.124031 95.440328 91.339750 -0.000000 0.198490 0.193368 -0.364844
2.670000 16.947427 481.240656 -0.000000 0.423227 0.444408 -0.123663 91.590896 75.237925 -0.000000 0.193120 0.199338 -0.363891
2.675000 14.861651 489.828347 -0.000000 0.427920 0.437745 -0.123484 87.259350 59.359204 -0.000000 0.188649 0.205631 -0.363803
2.680000 11.874769 496.478982 -0.000000 0.432338 0.431005 -0.123370 82.605564 43.745461 -0.000000 0.184455 0.212170 -0.363637
2.685000 8.904752 501.649284 -0.000000 0.436486 0.423420 -0.123120 77.806901 28.476841 -0.000000 0.180704 0.218939 -0.363592
2.690000 4.800737 505.921045 -0.000000 0.440228 0.416140 -0.123005 72.928541 14.002752 -0.000000 0.177289 0.225919 -0.363446
2.695000 0.680968 509.856516 -0.000000 0.443831 0.408539 -0.123162 68.197505 0.421218 -0.000000 0.174204 0.233061 -0.363376
